# xmcd CD database file
#
# Track frame offsets:
#	150
#	9680
#	30883
#	49543
#	72957
#	92214
#	115527
#	130723
#	146799
#	166327
#	180920
#
# Disc length: 2832 seconds
#
# Revision: 0
# Processed by: cddbd v1.4PL0 Copyright (c) Steve Scherf et al.
# Submitted via: CDex 1.50
#
DISCID=830b0e0b
DTITLE=John Mayall - Spinning Coin
DYEAR=1995
DGENRE=Blues
TTITLE0=When The Devil Starts Crying
TTITLE1=Spinning Coin
TTITLE2=Ain(y No Brakeman
TTITLE3=Double Life Feelings
TTITLE4=Run
TTITLE5=What Passes For Love
TTITLE6=Fan The Flames
TTITLE7=Voodoo Music
TTITLE8=Long Story Short
TTITLE9=No Big Hurry
TTITLE10=Remember This
EXTD=YEAR: 1995
EXTT0=
EXTT1=
EXTT2=
EXTT3=
EXTT4=
EXTT5=
EXTT6=
EXTT7=
EXTT8=
EXTT9=
EXTT10=
PLAYORDER=
